<svg aria-hidden="true" style="position: absolute; width: 0; height: 0; overflow: hidden;" version="1.1" xmlns="http://www.w3.org/2000/svg" xmlns:xlink="http://www.w3.org/1999/xlink">
<defs>
<symbol id="icon-close" viewBox="0 0 32 32">
<path d="M8.293 8.305c0.187-0.187 0.442-0.293 0.706-0.293s0.519 0.105 0.706 0.293l6.288 6.293 6.288-6.293c0.092-0.096 0.202-0.172 0.324-0.224s0.253-0.080 0.386-0.081c0.133-0.001 0.264 0.024 0.387 0.074s0.234 0.125 0.328 0.218c0.094 0.094 0.168 0.206 0.218 0.328s0.076 0.255 0.074 0.387c-0.001 0.133-0.029 0.264-0.081 0.386s-0.128 0.232-0.224 0.325l-6.288 6.293 6.288 6.293c0.182 0.189 0.283 0.441 0.28 0.703s-0.107 0.513-0.293 0.698c-0.185 0.185-0.436 0.291-0.698 0.293s-0.514-0.099-0.703-0.281l-6.288-6.293-6.288 6.293c-0.188 0.182-0.441 0.283-0.703 0.281s-0.513-0.108-0.698-0.293c-0.185-0.185-0.29-0.436-0.293-0.698s0.098-0.515 0.28-0.703l6.288-6.293-6.288-6.293c-0.187-0.188-0.293-0.442-0.293-0.707s0.105-0.52 0.293-0.707z"></path>
</symbol>
<symbol id="icon-menu" viewBox="0 0 32 32">
<path d="M5.333 24h21.333c0.733 0 1.333-0.6 1.333-1.333s-0.6-1.333-1.333-1.333h-21.333c-0.733 0-1.333 0.6-1.333 1.333s0.6 1.333 1.333 1.333zM5.333 17.333h21.333c0.733 0 1.333-0.6 1.333-1.333s-0.6-1.333-1.333-1.333h-21.333c-0.733 0-1.333 0.6-1.333 1.333s0.6 1.333 1.333 1.333zM4 9.333c0 0.733 0.6 1.333 1.333 1.333h21.333c0.733 0 1.333-0.6 1.333-1.333s-0.6-1.333-1.333-1.333h-21.333c-0.733 0-1.333 0.6-1.333 1.333z"></path>
</symbol>
<symbol id="icon-media-play" viewBox="0 0 24 24">
<path d="M10.396 18.433c2.641-2.574 6.604-6.433 6.604-6.433s-3.963-3.859-6.604-6.433c-0.363-0.349-0.853-0.567-1.396-0.567-1.104 0-2 0.896-2 2v10c0 1.104 0.896 2 2 2 0.543 0 1.033-0.218 1.396-0.567z"></path>
</symbol>
<symbol id="icon-media-pause" viewBox="0 0 24 24">
<path d="M8 6c-1.104 0-2 0.896-2 2v8c0 1.104 0.896 2 2 2s2-0.896 2-2v-8c0-1.104-0.896-2-2-2z"></path>
<path d="M15 6c-1.104 0-2 0.896-2 2v8c0 1.104 0.896 2 2 2s2-0.896 2-2v-8c0-1.104-0.896-2-2-2z"></path>
</symbol>
<symbol id="icon-pause" viewBox="0 0 32 32">
<path d="M11 0h-6c-0.553 0-1 0.448-1 1v30c0 0.553 0.447 1 1 1h6c0.553 0 1-0.447 1-1v-30c0-0.552-0.447-1-1-1zM27 0h-6c-0.553 0-1 0.448-1 1v30c0 0.553 0.447 1 1 1h6c0.553 0 1-0.447 1-1v-30c0-0.552-0.447-1-1-1z"></path>
</symbol>
<symbol id="icon-play" viewBox="0 0 32 32">
<path d="M6 0v32l20-15.977-20-16.023z"></path>
</symbol>
<symbol id="icon-arrow-left2" viewBox="0 0 32 32">
<path d="M12.586 27.414l-10-10c-0.781-0.781-0.781-2.047 0-2.828l10-10c0.781-0.781 2.047-0.781 2.828 0s0.781 2.047 0 2.828l-6.586 6.586h19.172c1.105 0 2 0.895 2 2s-0.895 2-2 2h-19.172l6.586 6.586c0.39 0.39 0.586 0.902 0.586 1.414s-0.195 1.024-0.586 1.414c-0.781 0.781-2.047 0.781-2.828 0z"></path>
</symbol>
</defs>
</svg>
