<svg width="36" height="40" viewBox="0 0 36 40" fill="none" xmlns="http://www.w3.org/2000/svg">
<path fill-rule="evenodd" clip-rule="evenodd" d="M1.15272 1.3204C0.716217 1.7824 0.459717 2.4979 0.459717 3.4264V36.5734C0.459717 37.5019 0.716217 38.2174 1.15272 38.6794L1.26372 38.7874L19.8322 20.2189V19.7809L1.26372 1.2124L1.15272 1.3204Z" fill="#00D7FE"/>
<mask id="mask0_2001_230" style="mask-type:alpha" maskUnits="userSpaceOnUse" x="19" y="13" width="17" height="14">
<path d="M26.0198 26.4111L19.8323 20.2191V19.7811L26.0228 13.5906L33.4958 17.8356C35.5898 19.0266 35.5898 20.9736 33.4958 22.1631L26.1623 26.3301L26.0198 26.4111Z" fill="white"/>
</mask>
<g mask="url(#mask0_2001_230)">
<path fill-rule="evenodd" clip-rule="evenodd" d="M26.0198 26.4111L19.8323 20.2191V19.7811L26.0228 13.5906L33.4958 17.8356C35.5898 19.0266 35.5898 20.9736 33.4958 22.1631L26.1623 26.3301L26.0198 26.4111Z" fill="url(#paint0_linear_2001_230)"/>
</g>
<mask id="mask1_2001_230" style="mask-type:alpha" maskUnits="userSpaceOnUse" x="1" y="20" width="26" height="20">
<path d="M26.1621 26.33L19.8321 20L1.15259 38.6795C1.84409 39.41 2.98409 39.5 4.26809 38.771L26.1621 26.33Z" fill="white"/>
</mask>
<g mask="url(#mask1_2001_230)">
<path fill-rule="evenodd" clip-rule="evenodd" d="M26.1621 26.33L19.8321 20L1.15259 38.6795C1.84409 39.41 2.98409 39.5 4.26809 38.771L26.1621 26.33Z" fill="url(#paint1_linear_2001_230)"/>
</g>
<mask id="mask2_2001_230" style="mask-type:alpha" maskUnits="userSpaceOnUse" x="1" y="0" width="26" height="20">
<path d="M26.1621 13.67L4.26809 1.22901C2.98409 0.500015 1.84409 0.590015 1.15259 1.32051L19.8321 20L26.1621 13.67Z" fill="white"/>
</mask>
<g mask="url(#mask2_2001_230)">
<path fill-rule="evenodd" clip-rule="evenodd" d="M26.1621 13.67L4.26809 1.22901C2.98409 0.500015 1.84409 0.590015 1.15259 1.32051L19.8321 20L26.1621 13.67Z" fill="url(#paint2_linear_2001_230)"/>
</g>
<defs>
<linearGradient id="paint0_linear_2001_230" x1="32.1335" y1="20.0005" x2="19.8323" y2="20.0005" gradientUnits="userSpaceOnUse">
<stop stop-color="#FFBC00"/>
<stop offset="1" stop-color="#FFDA03"/>
</linearGradient>
<linearGradient id="paint1_linear_2001_230" x1="22.722" y1="25.9562" x2="6.66675" y2="39.19" gradientUnits="userSpaceOnUse">
<stop stop-color="#E22652"/>
<stop offset="1" stop-color="#FF3A44"/>
</linearGradient>
<linearGradient id="paint2_linear_2001_230" x1="3.98109" y1="3.56926" x2="14.6854" y2="12.9817" gradientUnits="userSpaceOnUse">
<stop stop-color="#0ED574"/>
<stop offset="1" stop-color="#07F076"/>
</linearGradient>
</defs>
</svg>
