<svg width="172" height="46" viewBox="0 0 172 46" fill="none" xmlns="http://www.w3.org/2000/svg">
<path fill-rule="evenodd" clip-rule="evenodd" d="M1.15296 4.32046C0.716461 4.78246 0.459961 5.49796 0.459961 6.42646V39.5735C0.459961 40.502 0.716461 41.2175 1.15296 41.6795L1.26396 41.7875L19.8325 23.219V22.781L1.26396 4.21246L1.15296 4.32046Z" fill="#00D7FE"/>
<mask id="mask0_2014_451" style="mask-type:alpha" maskUnits="userSpaceOnUse" x="19" y="16" width="17" height="14">
<path d="M26.02 29.411L19.8325 23.219V22.781L26.023 16.5905L33.496 20.8355C35.59 22.0265 35.59 23.9735 33.496 25.163L26.1625 29.33L26.02 29.411Z" fill="white"/>
</mask>
<g mask="url(#mask0_2014_451)">
<path fill-rule="evenodd" clip-rule="evenodd" d="M26.02 29.411L19.8325 23.219V22.781L26.023 16.5905L33.496 20.8355C35.59 22.0265 35.59 23.9735 33.496 25.163L26.1625 29.33L26.02 29.411Z" fill="url(#paint0_linear_2014_451)"/>
</g>
<mask id="mask1_2014_451" style="mask-type:alpha" maskUnits="userSpaceOnUse" x="1" y="23" width="26" height="20">
<path d="M26.1623 29.33L19.8323 23L1.15283 41.6795C1.84433 42.41 2.98433 42.5 4.26833 41.771L26.1623 29.33Z" fill="white"/>
</mask>
<g mask="url(#mask1_2014_451)">
<path fill-rule="evenodd" clip-rule="evenodd" d="M26.1623 29.33L19.8323 23L1.15283 41.6795C1.84433 42.41 2.98433 42.5 4.26833 41.771L26.1623 29.33Z" fill="url(#paint1_linear_2014_451)"/>
</g>
<mask id="mask2_2014_451" style="mask-type:alpha" maskUnits="userSpaceOnUse" x="1" y="3" width="26" height="20">
<path d="M26.1623 16.67L4.26833 4.22898C2.98433 3.49998 1.84433 3.58998 1.15283 4.32048L19.8323 23L26.1623 16.67Z" fill="white"/>
</mask>
<g mask="url(#mask2_2014_451)">
<path fill-rule="evenodd" clip-rule="evenodd" d="M26.1623 16.67L4.26833 4.22898C2.98433 3.49998 1.84433 3.58998 1.15283 4.32048L19.8323 23L26.1623 16.67Z" fill="url(#paint2_linear_2014_451)"/>
</g>
<path fill-rule="evenodd" clip-rule="evenodd" d="M142.841 39.4295H145.64V20.678H142.841V39.4295ZM168.051 27.4325L164.843 35.5625H164.747L161.417 27.4325H158.402L163.396 38.795L160.548 45.116H163.469L171.164 27.4325H168.051ZM152.179 37.2995C151.261 37.2995 149.982 36.842 149.982 35.708C149.982 34.2605 151.576 33.7055 152.95 33.7055C154.181 33.7055 154.758 33.971 155.507 34.3325C155.289 36.0695 153.794 37.2995 152.179 37.2995ZM152.516 27.023C150.49 27.023 148.391 27.9155 147.522 29.894L150.007 30.9305C150.537 29.894 151.526 29.555 152.564 29.555C154.011 29.555 155.483 30.4235 155.507 31.9685V32.1605C155 31.871 153.915 31.4375 152.588 31.4375C149.91 31.4375 147.184 32.909 147.184 35.6585C147.184 38.168 149.379 39.785 151.839 39.785C153.722 39.785 154.759 38.9405 155.411 37.9505H155.507V39.398H158.208V32.21C158.208 28.88 155.725 27.023 152.516 27.023ZM135.218 29.7155H131.237V23.288H135.218C137.311 23.288 138.499 25.0205 138.499 26.501C138.499 27.9545 137.311 29.7155 135.218 29.7155ZM135.146 20.678H128.439V39.4295H131.237V32.3255H135.146C138.248 32.3255 141.298 30.0785 141.298 26.501C141.298 22.9235 138.248 20.678 135.146 20.678ZM98.5745 37.3025C96.641 37.3025 95.0225 35.684 95.0225 33.461C95.0225 31.214 96.641 29.57 98.5745 29.57C100.484 29.57 101.981 31.214 101.981 33.461C101.981 35.684 100.484 37.3025 98.5745 37.3025ZM101.788 28.4825H101.691C101.063 27.734 99.8555 27.0575 98.333 27.0575C95.1425 27.0575 92.219 29.8595 92.219 33.461C92.219 37.037 95.1425 39.8165 98.333 39.8165C99.8555 39.8165 101.063 39.14 101.691 38.366H101.788V39.284C101.788 41.726 100.484 43.031 98.381 43.031C96.665 43.031 95.6015 41.798 95.1665 40.7585L92.726 41.774C93.4265 43.466 95.288 45.5435 98.381 45.5435C101.668 45.5435 104.447 43.61 104.447 38.8985V27.443H101.788V28.4825ZM106.381 39.4295H109.184V20.6765H106.381V39.4295ZM113.315 33.2435C113.243 30.779 115.224 29.522 116.649 29.522C117.762 29.522 118.704 30.077 119.018 30.875L113.315 33.2435ZM122.015 31.1165C121.484 29.6915 119.864 27.0575 116.553 27.0575C113.267 27.0575 110.537 29.642 110.537 33.437C110.537 37.013 113.243 39.8165 116.867 39.8165C119.792 39.8165 121.484 38.0285 122.185 36.989L120.009 35.5385C119.285 36.602 118.293 37.3025 116.867 37.3025C115.442 37.3025 114.426 36.65 113.774 35.3705L122.304 31.8425L122.015 31.1165ZM54.053 29.015V31.721H60.5285C60.335 33.2435 59.828 34.355 59.0555 35.129C58.112 36.071 56.6375 37.109 54.053 37.109C50.066 37.109 46.9475 33.896 46.9475 29.909C46.9475 25.9205 50.066 22.7075 54.053 22.7075C56.204 22.7075 57.7745 23.5535 58.934 24.641L60.8435 22.7315C59.2235 21.185 57.074 20 54.053 20C48.5915 20 44 24.4475 44 29.909C44 35.3705 48.5915 39.8165 54.053 39.8165C57.0005 39.8165 59.2235 38.8505 60.9635 37.037C62.7515 35.249 63.308 32.7365 63.308 30.7055C63.308 30.077 63.26 29.498 63.1625 29.015H54.053ZM70.6715 37.3025C68.738 37.3025 67.07 35.708 67.07 33.437C67.07 31.1405 68.738 29.57 70.6715 29.57C72.6035 29.57 74.2715 31.1405 74.2715 33.437C74.2715 35.708 72.6035 37.3025 70.6715 37.3025ZM70.6715 27.0575C67.142 27.0575 64.2665 29.7395 64.2665 33.437C64.2665 37.109 67.142 39.8165 70.6715 39.8165C74.1995 39.8165 77.075 37.109 77.075 33.437C77.075 29.7395 74.1995 27.0575 70.6715 27.0575ZM84.641 37.3025C82.7075 37.3025 81.0395 35.708 81.0395 33.437C81.0395 31.1405 82.7075 29.57 84.641 29.57C86.5745 29.57 88.241 31.1405 88.241 33.437C88.241 35.708 86.5745 37.3025 84.641 37.3025ZM84.641 27.0575C81.113 27.0575 78.2375 29.7395 78.2375 33.437C78.2375 37.109 81.113 39.8165 84.641 39.8165C88.169 39.8165 91.0445 37.109 91.0445 33.437C91.0445 29.7395 88.169 27.0575 84.641 27.0575Z" fill="black"/>
<path d="M52.2068 8.72095V12.2344C52.0881 12.4102 51.8992 12.6079 51.6399 12.8276C51.3806 13.043 51.0225 13.2319 50.5654 13.3945C50.1128 13.5527 49.5283 13.6318 48.812 13.6318C48.2275 13.6318 47.6892 13.5308 47.197 13.3286C46.7092 13.1221 46.2852 12.8232 45.9248 12.4321C45.5688 12.0366 45.292 11.5576 45.0942 10.9951C44.9009 10.4282 44.8042 9.78662 44.8042 9.07031V8.32544C44.8042 7.60913 44.8877 6.96973 45.0547 6.40723C45.2261 5.84473 45.4766 5.36792 45.8062 4.97681C46.1357 4.5813 46.54 4.28247 47.019 4.08032C47.498 3.87378 48.0474 3.77051 48.667 3.77051C49.4009 3.77051 50.0139 3.89795 50.5061 4.15283C51.0027 4.40332 51.3894 4.75049 51.6663 5.19434C51.9475 5.63818 52.1277 6.14355 52.2068 6.71045H50.9346C50.8774 6.36328 50.7632 6.04687 50.5918 5.76123C50.4248 5.47559 50.1853 5.24707 49.8733 5.07568C49.5613 4.8999 49.1592 4.81201 48.667 4.81201C48.2231 4.81201 47.8386 4.89331 47.5134 5.05591C47.1882 5.21851 46.9202 5.45142 46.7092 5.75464C46.4983 6.05786 46.3401 6.4248 46.2346 6.85547C46.1335 7.28613 46.083 7.77173 46.083 8.31226V9.07031C46.083 9.62402 46.1467 10.1184 46.2742 10.5535C46.406 10.9885 46.5928 11.3599 46.8345 11.6675C47.0762 11.9707 47.364 12.2014 47.698 12.3596C48.0364 12.5178 48.4099 12.5969 48.8186 12.5969C49.2712 12.5969 49.6382 12.5596 49.9194 12.4849C50.2007 12.4058 50.4204 12.3135 50.5786 12.208C50.7368 12.0981 50.8577 11.9949 50.9412 11.8982V9.74927H48.7197V8.72095H52.2068ZM60.0086 12.4651V13.5H54.9263V12.4651H60.0086ZM55.1834 3.90234V13.5H53.9112V3.90234H55.1834ZM59.3362 8.02881V9.06372H54.9263V8.02881H59.3362ZM59.9427 3.90234V4.94385H54.9263V3.90234H59.9427ZM64.8572 3.90234V13.5H63.6048V3.90234H64.8572ZM67.9422 3.90234V4.94385H60.5264V3.90234H67.9422ZM73.0055 3.90234V13.5H71.7333V3.90234H73.0055ZM78.2628 3.90234V13.5H77.0104V3.90234H78.2628ZM81.3478 3.90234V4.94385H73.932V3.90234H81.3478ZM92.436 8.39795V9.00439C92.436 9.7251 92.3459 10.3711 92.1657 10.9424C91.9856 11.5137 91.7263 11.9993 91.3879 12.3992C91.0495 12.7991 90.643 13.1045 90.1684 13.3154C89.6982 13.5264 89.1709 13.6318 88.5864 13.6318C88.0195 13.6318 87.4987 13.5264 87.0241 13.3154C86.5539 13.1045 86.1452 12.7991 85.7981 12.3992C85.4553 11.9993 85.1894 11.5137 85.0005 10.9424C84.8115 10.3711 84.717 9.7251 84.717 9.00439V8.39795C84.717 7.67725 84.8093 7.03345 84.9939 6.46655C85.1828 5.89526 85.4487 5.40967 85.7915 5.00977C86.1342 4.60547 86.5407 4.29785 87.0109 4.08691C87.4856 3.87598 88.0063 3.77051 88.5732 3.77051C89.1577 3.77051 89.685 3.87598 90.1552 4.08691C90.6298 4.29785 91.0363 4.60547 91.3747 5.00977C91.7175 5.40967 91.979 5.89526 92.1591 6.46655C92.3437 7.03345 92.436 7.67725 92.436 8.39795ZM91.177 9.00439V8.38477C91.177 7.81348 91.1176 7.30811 90.999 6.86865C90.8847 6.4292 90.7155 6.06006 90.4914 5.76123C90.2673 5.4624 89.9926 5.23608 89.6674 5.08228C89.3466 4.92847 88.9819 4.85156 88.5732 4.85156C88.1777 4.85156 87.8195 4.92847 87.4987 5.08228C87.1823 5.23608 86.9099 5.4624 86.6814 5.76123C86.4572 6.06006 86.2837 6.4292 86.1606 6.86865C86.0376 7.30811 85.976 7.81348 85.976 8.38477V9.00439C85.976 9.58008 86.0376 10.0898 86.1606 10.5337C86.2837 10.9731 86.4594 11.3445 86.688 11.6477C86.9209 11.9465 87.1955 12.1729 87.5119 12.3267C87.8327 12.4805 88.1909 12.5574 88.5864 12.5574C88.9995 12.5574 89.3664 12.4805 89.6872 12.3267C90.008 12.1729 90.2783 11.9465 90.498 11.6477C90.7221 11.3445 90.8913 10.9731 91.0056 10.5337C91.1198 10.0898 91.177 9.58008 91.177 9.00439ZM101.319 3.90234V13.5H100.04L95.2082 6.09741V13.5H93.936V3.90234H95.2082L100.06 11.3247V3.90234H101.319Z" fill="#43007A"/>
<defs>
<linearGradient id="paint0_linear_2014_451" x1="32.1337" y1="23.0004" x2="19.8325" y2="23.0004" gradientUnits="userSpaceOnUse">
<stop stop-color="#FFBC00"/>
<stop offset="1" stop-color="#FFDA03"/>
</linearGradient>
<linearGradient id="paint1_linear_2014_451" x1="22.7222" y1="28.9562" x2="6.66699" y2="42.19" gradientUnits="userSpaceOnUse">
<stop stop-color="#E22652"/>
<stop offset="1" stop-color="#FF3A44"/>
</linearGradient>
<linearGradient id="paint2_linear_2014_451" x1="3.98133" y1="6.56923" x2="14.6857" y2="15.9816" gradientUnits="userSpaceOnUse">
<stop stop-color="#0ED574"/>
<stop offset="1" stop-color="#07F076"/>
</linearGradient>
</defs>
</svg>
